HIERARCHY
ROOT Hips
{
	OFFSET 0.000000 0.000000 0.000000
	CHANNELS 6 Xposition Yposition Zposition Zrotation Yrotation Xrotation 
	JOINT LHipJoint
	{
		OFFSET 0.000000 0.000000 0.000000
		CHANNELS 3 Zrotation Yrotation Xrotation
		JOINT LeftUpLeg
		{
			OFFSET 1.363060 -1.794630 0.839290
			CHANNELS 3 Zrotation Yrotation Xrotation
			JOINT LeftLeg
			{
				OFFSET 2.448110 -6.726130 0.000000
				CHANNELS 3 Zrotation Yrotation Xrotation
				JOINT LeftFoot
				{
					OFFSET 2.562200 -7.039590 0.000000
					CHANNELS 3 Zrotation Yrotation Xrotation
					JOINT LeftToeBase
					{
						OFFSET 0.157640 -0.433110 2.322550
						CHANNELS 3 Zrotation Yrotation Xrotation
						End Site
						{
							OFFSET 0.000000 0.000000 0.000000
						}
					}
				}
			}
		}
	}
	JOINT RHipJoint
	{
		OFFSET 0.000000 0.000000 0.000000
		CHANNELS 3 Zrotation Yrotation Xrotation
		JOINT RightUpLeg
		{
			OFFSET -1.305520 -1.794630 0.839290
			CHANNELS 3 Zrotation Yrotation Xrotation
			JOINT RightLeg
			{
				OFFSET -2.542530 -6.985550 0.000000
				CHANNELS 3 Zrotation Yrotation Xrotation
				JOINT RightFoot
				{
					OFFSET -2.568260 -7.056230 0.000000
					CHANNELS 3 Zrotation Yrotation Xrotation
					JOINT RightToeBase
					{
						OFFSET -0.164730 -0.452590 2.363150
						CHANNELS 3 Zrotation Yrotation Xrotation
						End Site
						{
							OFFSET 0.000000 0.000000 0.000000
						}
					}
				}
			}
		}
	}
}
MOTION
Frames: 25
Frame Time: 0.008333
-21.652433 16.898888 -0.211239 33.377717 85.000906 47.822475 -8.899721 1.120393 3.076420 -18.565100 3.183017 -46.299652 -3.016382 0.986477 31.788669 2.008532 6.530806 -15.701136 -1.029200 0.000001 -28.090499 10.227672 -5.259604 1.280444 2.599353 -8.698379 9.184564 1.560701 -0.762858 7.378473 0.397752 4.697413 14.153166 1.386100 0.000000 -81.016500
-21.446810 16.921523 -0.219928 30.131994 84.756024 44.323766 -9.025486 1.105960 3.120521 -17.930761 2.933418 -44.819688 -2.940706 0.889678 31.443706 2.096266 6.915650 -16.291946 -1.179200 -0.000000 -27.635099 10.211802 -5.313889 1.227752 2.199748 -8.601360 8.765774 1.385287 -1.030404 9.429365 0.392280 5.872711 16.880344 2.110400 -0.000000 -83.610400
-21.240278 16.941386 -0.229821 26.822682 84.476985 40.742061 -9.155468 1.108922 3.141885 -17.346128 2.784044 -43.341583 -2.868944 0.807801 31.146873 2.182646 7.308150 -16.884959 -1.338700 -0.000000 -27.007900 10.202957 -5.341316 1.176489 1.805252 -8.528589 8.217304 1.186617 -1.280095 11.695733 0.353598 7.199329 19.713138 3.020200 0.000000 -85.541700
-21.033906 16.957960 -0.240690 23.654465 84.190602 37.288597 -9.281778 1.128645 3.145489 -16.814855 2.714979 -41.898982 -2.800932 0.742038 30.918260 2.263000 7.689721 -17.453118 -1.500300 0.000000 -26.230600 10.213460 -5.338382 1.119889 1.414639 -8.545059 7.501317 0.967398 -1.504084 14.214820 0.274599 8.613170 22.593934 4.096800 0.000000 -86.642900
-20.828039 16.970998 -0.251850 20.787587 83.928696 34.119148 -9.399224 1.162770 3.125271 -16.350429 2.742418 -40.506058 -2.740088 0.692633 30.766833 2.327775 8.016301 -17.971865 -1.652800 -0.000000 -25.349500 10.246688 -5.304239 1.054399 1.045147 -8.666215 6.654503 0.735706 -1.692964 16.924869 0.150180 9.929183 25.436043 5.236700 -0.000000 -86.854800
-20.623689 16.980361 -0.262791 18.349810 83.723643 31.365532 -9.504944 1.207630 3.084685 -15.956932 2.851099 -39.182322 -2.686654 0.658697 30.704472 2.372803 8.267572 -18.423435 -1.787700 0.000000 -24.401100 10.304736 -5.240315 0.973060 0.697839 -8.933367 5.671986 0.502077 -1.845269 19.820668 -0.016670 10.971587 28.141689 6.303900 -0.000000 -86.080500
-20.420991 16.986086 -0.273042 16.407946 83.601395 29.097451 -9.598917 1.259754 3.027232 -15.634964 3.027879 -37.939051 -2.640724 0.638789 30.735277 2.395321 8.428300 -18.796549 -1.897700 -0.000001 -23.423801 10.384102 -5.149767 0.869275 0.375255 -9.369935 4.560939 0.277373 -1.964684 22.881712 -0.218889 11.528631 30.597708 7.110100 0.000000 -84.278200
-20.220432 16.988346 -0.282202 15.010962 83.579508 27.365035 -9.681821 1.316375 2.956630 -15.382858 3.257498 -36.775066 -2.601961 0.630599 30.853799 2.394827 8.492940 -19.087445 -1.978700 -0.000000 -22.452700 10.479768 -5.036758 0.735967 0.074343 -9.990795 3.334291 0.069946 -2.059862 26.080152 -0.448114 11.399520 32.685635 7.454300 0.000000 -81.487600
-20.022053 16.987480 -0.289910 14.220657 83.667646 26.227278 -9.753602 1.375055 2.875923 -15.197884 3.520688 -35.671771 -2.569362 0.630601 31.042628 2.373330 8.468129 -19.298856 -2.030500 0.000000 -21.520200 10.587366 -4.905799 0.565591 -0.216288 -10.803507 2.017284 -0.114908 -2.142466 29.371740 -0.696752 10.440687 34.280466 7.173501 0.000000 -77.875300
-19.826115 16.983950 -0.296534 13.864164 83.851794 25.527675 -9.818672 1.435655 2.794362 -15.053103 3.803891 -34.645548 -2.540947 0.637986 31.294114 2.335020 8.366916 -19.443087 -2.055400 -0.000000 -20.650900 10.695370 -4.759450 0.364705 -0.463982 -11.755614 0.598332 -0.279300 -2.223497 32.739019 -0.960214 8.552478 35.246469 6.160200 0.000000 -73.587600
-19.632592 16.978273 -0.301793 14.062716 84.128121 25.375392 -9.873958 1.495341 2.710410 -14.946496 4.086007 -33.643234 -2.515474 0.646989 31.568868 2.284768 8.211348 -19.532581 -2.060000 -0.000000 -19.871500 10.803831 -4.602168 0.126943 -0.691171 -12.837581 -0.872686 -0.422283 -2.314942 36.102829 -1.232014 5.836538 35.464597 4.487000 -0.000000 -68.998500
-19.441144 16.971102 -0.306186 14.682838 84.470549 25.645867 -9.921504 1.553990 2.628788 -14.854449 4.355155 -32.653766 -2.491455 0.655292 31.841518 2.228545 8.025321 -19.586824 -2.051300 -0.000000 -19.203900 10.905603 -4.437221 -0.139123 -0.874879 -13.986447 -2.389311 -0.548006 -2.425066 39.418095 -1.505127 2.488267 34.835655 2.342100 0.000000 -64.346100
-19.251494 16.963049 -0.310029 15.671567 84.853657 26.287127 -9.961165 1.610975 2.550489 -14.762961 4.598809 -31.647891 -2.468182 0.659621 32.078142 2.172138 7.834244 -19.624822 -2.037499 0.000000 -18.666500 10.998051 -4.268715 -0.427512 -1.009614 -15.154112 -3.936119 -0.659083 -2.559877 42.630688 -1.768982 -1.166692 33.311033 0.038701 0.000000 -59.802900
-19.063405 16.954844 -0.314023 16.777636 85.239323 27.059161 -9.997514 1.668163 2.479320 -14.649519 4.815300 -30.621627 -2.445801 0.659314 32.253161 2.120527 7.659293 -19.666113 -2.025400 0.000000 -18.275200 11.073752 -4.099485 -0.723103 -1.063154 -16.265976 -5.520957 -0.759807 -2.718737 45.701534 -2.012827 -4.794397 30.906988 -2.096000 -0.000000 -55.414200
-18.876320 16.947073 -0.318497 17.843054 85.597756 27.807820 -10.032900 1.726578 2.415730 -14.507464 5.000203 -29.556848 -2.425063 0.652888 32.337504 2.077882 7.520234 -19.725924 -2.021500 0.000000 -18.037000 11.130174 -3.931820 -1.014798 -1.026285 -17.273578 -7.143286 -0.850102 -2.897191 48.587355 -2.225765 -8.081540 27.713986 -3.775000 0.000000 -51.198900
-18.689848 16.940181 -0.323634 18.723738 85.905936 28.392311 -10.069023 1.787169 2.359431 -14.338598 5.151402 -28.439482 -2.407055 0.639168 32.306565 2.046953 7.430531 -19.814568 -2.030400 0.000000 -17.949000 11.166615 -3.766994 -1.292700 -0.897647 -18.144396 -8.806215 -0.926084 -3.088038 51.257794 -2.397111 -10.798637 23.859278 -4.818700 -0.000000 -46.968100
-18.503397 16.934614 -0.329634 19.178585 86.141466 28.580423 -10.109724 1.851595 2.311160 -14.142894 5.273635 -27.272654 -2.392844 0.618462 32.146348 2.029055 7.397031 -19.937572 -2.054300 0.000000 -17.997900 11.179981 -3.603898 -1.543579 -0.662642 -18.837936 -10.519742 -0.981923 -3.279983 53.689749 -2.520740 -12.840232 19.512094 -5.187801 0.000000 -42.601200
-18.316394 16.930641 -0.336412 19.060789 86.294413 28.231036 -10.155933 1.920667 2.270624 -13.927311 5.371747 -26.059726 -2.383090 0.590620 31.847629 2.024107 7.420344 -20.093367 -2.093800 -0.000000 -18.159800 11.170512 -3.440977 -1.758046 -0.318258 -19.335230 -12.287874 -1.009117 -3.462542 55.865178 -2.593162 -14.181570 14.855796 -4.949700 -0.000001 -37.971300
-18.128756 16.928498 -0.343790 18.273130 86.360628 27.246213 -10.207487 1.995367 2.236578 -13.696446 5.456634 -24.802248 -2.377958 0.555808 31.407343 2.030515 7.494599 -20.274870 -2.147100 0.000000 -18.404700 11.139548 -3.275945 -1.928220 0.136398 -19.623318 -14.103115 -1.000755 -3.625777 57.765963 -2.617046 -14.877524 10.095898 -4.259100 -0.000001 -33.137100
-17.939722 16.928284 -0.351385 16.900705 86.353154 25.716240 -10.259599 2.074506 2.207491 -13.459352 5.533996 -23.509330 -2.376909 0.513038 30.827083 2.045918 7.608827 -20.468796 -2.210701 0.000000 -18.699401 11.092992 -3.107906 -2.051602 0.692825 -19.716998 -15.961890 -0.951839 -3.764567 59.379139 -2.597346 -15.011395 5.435029 -3.302000 0.000000 -28.230300
-17.749045 16.930032 -0.358829 15.046303 86.285681 23.734813 -10.309468 2.157500 2.180327 -13.216773 5.618781 -22.178586 -2.378893 0.462226 30.112858 2.066650 7.747924 -20.658665 -2.279200 -0.000000 -19.017500 11.034928 -2.936465 -2.128168 1.340012 -19.633192 -17.842457 -0.863972 -3.875948 60.693481 -2.544452 -14.706433 1.052290 -2.263599 0.000000 -23.380500
-17.556546 16.933752 -0.365709 12.901295 86.182275 21.494394 -10.353490 2.241681 2.153191 -12.971453 5.718596 -20.818181 -2.382464 0.402392 29.271306 2.088969 7.895353 -20.824269 -2.346300 0.000000 -19.341900 10.969984 -2.762516 -2.160284 2.065483 -19.402178 -19.734193 -0.744574 -3.960334 61.699583 -2.471396 -14.099942 -2.862150 -1.299200 0.000000 -19.132200
-17.362283 16.939335 -0.371705 10.625645 86.064907 19.147163 -10.391109 2.325138 2.123824 -12.721929 5.843983 -19.427741 -2.386093 0.333448 28.309989 2.108798 8.034873 -20.944949 -2.404700 -0.000000 -19.670300 10.899760 -2.587849 -2.153820 2.853074 -19.059506 -21.617414 -0.604216 -4.020303 62.397762 -2.390882 -13.326131 -6.209989 -0.495600 -0.000000 -15.663400
-17.166082 16.946573 -0.376534 8.338724 85.954231 16.806238 -10.423468 2.406620 2.090763 -12.465477 6.002907 -18.007370 -2.388458 0.255818 27.235984 2.122340 8.151931 -21.001104 -2.447500 0.000000 -20.016100 10.823885 -2.414199 -2.116337 3.686892 -18.642216 -23.473546 -0.453251 -4.058927 62.793981 -2.315470 -12.510863 -8.963756 0.120600 0.000000 -12.992600
-16.968155 16.955172 -0.380077 6.095272 85.866461 14.520015 -10.452686 2.485835 2.053082 -12.197886 6.200653 -16.557123 -2.388410 0.170654 26.056096 2.126459 8.235777 -20.975087 -2.468700 -0.000000 -20.406800 10.740694 -2.242660 -2.055932 4.553081 -18.182819 -25.284163 -0.299206 -4.078681 62.897608 -2.257092 -11.763035 -11.163524 0.568000 -0.000000 -10.921500
